<svg xmlns="http://www.w3.org/2000/svg" viewBox="0 0 29.58 28.01"><defs><style>.cls-1{fill:#aa4c28;}</style></defs><title>Asset 3</title><g id="Layer_2" data-name="Layer 2"><g id="Layer_1-2" data-name="Layer 1"><rect class="cls-1" x="3.77" y="3.81" width="2.17" height="1.49"/><rect class="cls-1" x="7.29" y="3.81" width="2.17" height="1.49"/><rect class="cls-1" x="10.81" y="3.81" width="2.17" height="1.49"/><path class="cls-1" d="M26.09,0H3.48A3.49,3.49,0,0,0,0,3.48v21A3.49,3.49,0,0,0,3.48,28H26.09a3.49,3.49,0,0,0,3.48-3.48v-21A3.49,3.49,0,0,0,26.09,0ZM3.48,1.49H26.09a2,2,0,0,1,2,2V7.2H1.49V3.48A2,2,0,0,1,3.48,1.49ZM20,13.26v1.49H13.13V13.26Zm-9.29,8.42H4.45V13.3h6.27Zm14.27,0H13.13V20.23H25Zm0-3.49H13.13V16.74H25Z"/></g></g></svg>