<svg xmlns="http://www.w3.org/2000/svg" viewBox="0 0 33.45 34.73"><defs><style>.cls-1{fill:#aa4c28;}</style></defs><title>Asset 2</title><g id="Layer_2" data-name="Layer 2"><g id="Layer_1-2" data-name="Layer 1"><path class="cls-1" d="M22.57,13.34h-.93A6.86,6.86,0,0,1,17,14.94a6.86,6.86,0,0,1-4.64-1.6H11.7c-3.39,0-6.13,2.07-6.13,4.64H28.38C28.42,15.4,25.82,13.34,22.57,13.34Z"/><path class="cls-1" d="M17,0a6.88,6.88,0,1,0,6.88,6.88A6.89,6.89,0,0,0,17,0Zm0,12.2A5.33,5.33,0,0,1,11.7,6.88a4.85,4.85,0,0,1,.18-1.28,7,7,0,0,0,3.07.75,4.89,4.89,0,0,0,2.89-.89c.07-.11,2.42-1.78,4.28-.11a5.49,5.49,0,0,1,.21,1.53A5.33,5.33,0,0,1,17,12.2Z"/><path class="cls-1" d="M33.13,34H29.35a1.84,1.84,0,0,0,.39-1.14V20.54a1.9,1.9,0,0,0-1.89-1.89H6.1a1.9,1.9,0,0,0-1.89,1.89v12.3A1.84,1.84,0,0,0,4.6,34H.36a.36.36,0,0,0-.36.36v0a.36.36,0,0,0,.36.36H33.09a.36.36,0,0,0,.36-.36v0A.31.31,0,0,0,33.13,34ZM14.37,29.85H12.91V26h1.46Zm5.53,0H15.12V25.92l2.18-2.39.93.18-.68,2h3.24Z"/></g></g></svg>