<svg xmlns="http://www.w3.org/2000/svg" viewBox="0 0 28.9 33.08"><defs><style>.cls-1{fill:#aa4c28;}</style></defs><title>Asset 1</title><g id="Layer_2" data-name="Layer 2"><g id="Layer_1-2" data-name="Layer 1"><path class="cls-1" d="M15.26,3.09A11.31,11.31,0,0,0,7.87,23.61,2.61,2.61,0,0,1,9,25.75v.09a.58.58,0,1,0,1.15,0v-.09a3.76,3.76,0,0,0-1.57-3.08,10.18,10.18,0,0,1-4.31-8.29A10,10,0,0,1,7.46,7,10.2,10.2,0,0,1,23.74,18.61a10,10,0,0,1-4.6,4.67l0,0a.58.58,0,0,0,.52,1l0,0a11.2,11.2,0,0,0,5.12-5.22,11.31,11.31,0,0,0-9.53-16Z"/><path class="cls-1" d="M8.8,2.56a.58.58,0,1,0,1.06-.45l-.07-.17a.58.58,0,1,0-1.06.45Z"/><path class="cls-1" d="M14.45,1.88A.58.58,0,0,0,15,1.31V.58a.58.58,0,1,0-1.15,0v.73A.58.58,0,0,0,14.45,1.88Z"/><path class="cls-1" d="M19.52,2.94a.58.58,0,0,0,.76-.29l.07-.17A.58.58,0,1,0,19.3,2l-.07.17A.58.58,0,0,0,19.52,2.94Z"/><path class="cls-1" d="M23.88,5.86a.57.57,0,0,0,.4-.16l.53-.51a.58.58,0,1,0-.8-.83l-.53.51a.58.58,0,0,0,.4,1Z"/><path class="cls-1" d="M26.63,10.05a.57.57,0,0,0,.21,0L27,9.94a.58.58,0,0,0-.43-1.07l-.17.07a.58.58,0,0,0,.21,1.11Z"/><path class="cls-1" d="M28.32,14h-.74a.58.58,0,0,0,0,1.15h.74a.58.58,0,0,0,0-1.15Z"/><path class="cls-1" d="M26.87,19.2l-.17-.07a.58.58,0,0,0-.46,1.05l.17.07a.58.58,0,0,0,.46-1.05Z"/><path class="cls-1" d="M24,23.36a.58.58,0,1,0-.82.8l.51.53a.58.58,0,0,0,.82-.8Z"/><path class="cls-1" d="M4.61,23.06l-.53.51a.58.58,0,1,0,.8.83l.53-.51a.58.58,0,0,0-.8-.83Z"/><path class="cls-1" d="M2,18.75l-.17.07a.58.58,0,1,0,.43,1.07l.17-.07A.58.58,0,0,0,2,18.75Z"/><path class="cls-1" d="M1.89,14.19a.58.58,0,0,0-.57-.58H.58a.58.58,0,0,0,0,1.15h.74A.57.57,0,0,0,1.89,14.19Z"/><path class="cls-1" d="M2.65,8.58,2.49,8.5A.58.58,0,0,0,2,9.56l.17.07a.58.58,0,0,0,.46-1.05Z"/><path class="cls-1" d="M4.89,5.39a.58.58,0,0,0,.82-.8L5.2,4.07a.58.58,0,1,0-.82.8Z"/><path class="cls-1" d="M12.48,11.53,12,12a.57.57,0,0,0-.44-.2H9.17a.58.58,0,0,0-.58.58v7a.58.58,0,0,0,.58.58h2.38a.58.58,0,0,0,.58-.58V13.49l1.16-1.15a4.43,4.43,0,0,0,1-1.45,4.38,4.38,0,0,0,.34-1.71v-.5h.06a.64.64,0,0,1,.57.47v.07a10.19,10.19,0,0,1-.17,2.35l-.1.54a.58.58,0,0,0,.57.68h3.19a.44.44,0,0,1,.43.43.61.61,0,0,1-.18.43l-.06.06a.58.58,0,0,0,0,.8l.15.16a.39.39,0,0,1,.1.27.42.42,0,0,1-.16.33l-.09.07a.58.58,0,0,0-.18.66l.1.26a.53.53,0,0,1,0,.22.54.54,0,0,1-.22.41l-.24.18a.58.58,0,0,0-.23.46v.19a.32.32,0,0,1-.33.32H13.39a.58.58,0,0,0,0,1.15h4.45a1.48,1.48,0,0,0,1.47-1.37h0a1.69,1.69,0,0,0,.6-1.86,1.58,1.58,0,0,0,.37-1,1.53,1.53,0,0,0-.24-.82,1.77,1.77,0,0,0,.24-.89,1.59,1.59,0,0,0-1.58-1.58H16.22a11.35,11.35,0,0,0,.16-2.47V9.11a1.26,1.26,0,0,0,0-.21A1.77,1.77,0,0,0,14.8,7.55l-.15,0a1.07,1.07,0,0,0-1.2,1.07v.58a3.25,3.25,0,0,1-.25,1.26A3.29,3.29,0,0,1,12.48,11.53ZM11,18.79H9.75V13H11Z"/><path class="cls-1" d="M19.36,25.26h-7a.58.58,0,0,0,0,1.15h6.45v2.1a1,1,0,0,1-1,1H11.16a1,1,0,0,1-1-1h6.45a.58.58,0,0,0,0-1.15h-7A.58.58,0,0,0,9,28v.53a2.2,2.2,0,0,0,2.2,2.19h.38a3,3,0,0,0,5.82,0h.38a2.2,2.2,0,0,0,2.2-2.19V26a.3.3,0,0,1,0-.12A.57.57,0,0,0,19.36,25.26Zm-4.91,6.67a1.82,1.82,0,0,1-1.72-1.23h3.44A1.82,1.82,0,0,1,14.45,31.93Z"/></g></g></svg>