<svg xmlns="http://www.w3.org/2000/svg" viewBox="0 0 66.61 37.84"><defs><style>.cls-1{fill:#ad4c28;}</style></defs><title>Asset 1</title><g id="Layer_2" data-name="Layer 2"><g id="Layer_1-2" data-name="Layer 1"><path class="cls-1" d="M11.42,0,37.84,22.23,64.26,0ZM9.08,2V8.33H1.4A1.44,1.44,0,0,0,0,9.84a1.43,1.43,0,0,0,1.51,1.51H20.22ZM66.61,2,46.48,18.92,66.61,35.86Zm-43,12.18a1.62,1.62,0,0,1-.85.21H3.78A1.61,1.61,0,0,0,2.27,16a1.53,1.53,0,0,0,1.51,1.44H16.65A1.61,1.61,0,0,1,18.17,19a1.53,1.53,0,0,1-1.51,1.44H6.81a1.51,1.51,0,1,0,0,3h4.54a1.51,1.51,0,1,1,0,3H9.08v9.37L29.21,18.92Zm20.58,6.72-5.32,4.49a1.56,1.56,0,0,1-1.94,0l-5.32-4.47L11.42,37.84H64.26Z"/></g></g></svg>