<?xml version="1.0" encoding="utf-8"?>
<!-- Generator: Adobe Illustrator 18.1.1, SVG Export Plug-In . SVG Version: 6.00 Build 0)  -->
<svg version="1.1" id="Layer_1" xmlns="http://www.w3.org/2000/svg" xmlns:xlink="http://www.w3.org/1999/xlink" x="0px" y="0px"
	 viewBox="0 0 298.7 314.7" enable-background="new 0 0 298.7 314.7" xml:space="preserve">
<path opacity="0.5" fill="none" stroke="#FFFFFF" stroke-width="2" stroke-miterlimit="10" d="M268.1,62.6L174.1,9.7
	c-13.7-7.7-36-7.7-49.7,0L30.3,62.6C16.6,70.3,5.4,89.1,5.4,104.5v105.8c0,15.4,11.2,34.2,24.8,41.9l94.1,52.9
	c13.7,7.6,36,7.6,49.7,0l94.1-52.9c13.7-7.7,24.8-26.5,24.8-41.9V104.5C293,89.1,281.8,70.3,268.1,62.6z"/>
<path opacity="0.5" fill="none" stroke="#FFFFFF" stroke-miterlimit="10" d="M285,157c0,75.6-61.3,137-137,137
	c-75.6,0-137-61.3-137-137C11,81.4,72.4,20,148,20C223.6,20,285,81.4,285,157z"/>
<path opacity="0.5" fill="none" stroke="#FFFFFF" stroke-width="2" stroke-miterlimit="10" d="M206.1,109.8h-66.3
	c-19.1,0-20.5,3.8-20.5,16.4c0,11.9,1.3,15.9,17.6,16.3c0,0,0,0,0,0.1h21.7c28,0,41.7,8.2,46,29.5c1,5.2,1.6,11.2,1.6,18
	c0,32.6-12.8,44.4-47.5,44.4H92.3V205h66.3c19.1,0,20.5-3.8,20.5-16.4c0-12.5-1.4-16.3-19.9-16.4c0,0,0,0,0-0.1h-19.4
	c-28.8,0-42.5-8.2-46.4-29.5c-0.8-4.4-1.2-9.3-1.2-14.8c0-35,12.8-47.5,47.6-47.5h45.9h20.4V109.8z"/>
<g opacity="0.75">
	
		<line opacity="0.5" fill="none" stroke="#FFFFFF" stroke-width="2" stroke-miterlimit="10" x1="148" y1="174.5" x2="148" y2="139.5"/>
	
		<line opacity="0.5" fill="none" stroke="#FFFFFF" stroke-width="2" stroke-miterlimit="10" x1="130.5" y1="157" x2="165.5" y2="157"/>
</g>
</svg>
