<?xml version="1.0" encoding="utf-8"?>
<!-- Generator: Adobe Illustrator 18.1.1, SVG Export Plug-In . SVG Version: 6.00 Build 0)  -->
<svg version="1.1" id="Layer_1" xmlns="http://www.w3.org/2000/svg" xmlns:xlink="http://www.w3.org/1999/xlink" x="0px" y="0px"
	 viewBox="0 0 320 391.5" enable-background="new 0 0 320 391.5" xml:space="preserve">
<g>
	<path fill="none" stroke="#B54C28" stroke-miterlimit="10" d="M299,236.6L201.3,293c-3.1,1.8-6.9,1.8-10,0l-97.7-56.4
		c-3.1-1.8-5-5.1-5-8.7l0-112.8c0-3.6,1.9-6.9,5-8.7l97.7-56.4c3.1-1.8,6.9-1.8,10,0l97.7,56.4c3.1,1.8,5,5.1,5,8.7l0,112.8
		C304,231.5,302.1,234.8,299,236.6z"/>
	<path fill="none" stroke="#B54C28" stroke-miterlimit="10" d="M313,190.6L215.3,247c-3.1,1.8-6.9,1.8-10,0l-97.7-56.4
		c-3.1-1.8-5-5.1-5-8.7l0-112.8c0-3.6,1.9-6.9,5-8.7l97.7-56.4c3.1-1.8,6.9-1.8,10,0L313,60.5c3.1,1.8,5,5.1,5,8.7l0,112.8
		C318,185.5,316.1,188.8,313,190.6z"/>
	<path fill="none" stroke="#B54C28" stroke-miterlimit="10" d="M213,231.6L115.3,288c-3.1,1.8-6.9,1.8-10,0L7.6,231.6
		c-3.1-1.8-5-5.1-5-8.7l0-112.8c0-3.6,1.9-6.9,5-8.7l97.7-56.4c3.1-1.8,6.9-1.8,10,0l97.7,56.4c3.1,1.8,5,5.1,5,8.7l0,112.8
		C218,226.5,216.1,229.8,213,231.6z"/>
	<path fill="none" stroke="#B54C28" stroke-miterlimit="10" d="M286,330.6L188.3,387c-3.1,1.8-6.9,1.8-10,0l-97.7-56.4
		c-3.1-1.8-5-5.1-5-8.7l0-112.8c0-3.6,1.9-6.9,5-8.7l97.7-56.4c3.1-1.8,6.9-1.8,10,0l97.7,56.4c3.1,1.8,5,5.1,5,8.7l0,112.8
		C291,325.5,289.1,328.8,286,330.6z"/>
</g>
</svg>
